<svg width="20" height="20" fill="none" xmlns="http://www.w3.org/2000/svg"><g clip-path="url(#clip0)"><path d="M3.652 0A3.644 3.644 0 000 3.652v12.696A3.644 3.644 0 003.652 20h6.881v-7.819H8.466V9.366h2.067V6.961c0-1.89 1.222-3.624 4.036-3.624 1.14 0 1.982.11 1.982.11l-.067 2.628s-.859-.008-1.797-.008c-1.014 0-1.177.467-1.177 1.244v2.055h3.055l-.133 2.815H13.51V20h2.838A3.644 3.644 0 0020 16.348V3.652A3.644 3.644 0 0016.348 0H3.652z" fill="#141C2C"/></g><defs><clipPath id="clip0"><path fill="#fff" d="M0 0h20v20H0z"/></clipPath></defs></svg>