<svg width="20" height="21" fill="none" xmlns="http://www.w3.org/2000/svg"><path d="M9.997 6.876c-1.836 0-3.334 1.545-3.334 3.44 0 1.894 1.498 3.44 3.334 3.44 1.837 0 3.335-1.546 3.335-3.44 0-1.895-1.498-3.44-3.335-3.44zM20 10.316c0-1.425.013-2.837-.065-4.259-.077-1.651-.443-3.117-1.613-4.325C17.147.522 15.729.148 14.128.068 12.747-.012 11.378 0 10 0 8.62 0 7.25-.012 5.872.068c-1.6.08-3.022.457-4.193 1.664C.506 2.942.143 4.406.066 6.057-.012 7.482 0 8.894 0 10.315c0 1.422-.013 2.837.065 4.259.077 1.651.443 3.117 1.613 4.325 1.174 1.21 2.592 1.584 4.193 1.664 1.381.08 2.75.067 4.128.067 1.38 0 2.75.013 4.128-.067 1.6-.08 3.022-.457 4.193-1.664 1.173-1.21 1.536-2.674 1.613-4.325.08-1.422.065-2.834.065-4.258zM9.997 15.607c-2.839 0-5.13-2.364-5.13-5.293 0-2.928 2.291-5.292 5.13-5.292 2.84 0 5.132 2.364 5.132 5.293 0 2.928-2.292 5.292-5.132 5.292zm5.342-9.566c-.663 0-1.199-.552-1.199-1.236 0-.684.536-1.236 1.199-1.236s1.198.552 1.198 1.236a1.27 1.27 0 01-.35.874 1.165 1.165 0 01-.848.362z" fill="#141C2C"/></svg>