<svg width="20" height="20" fill="none" xmlns="http://www.w3.org/2000/svg"><g clip-path="url(#clip0)"><path d="M3.921.002a3.931 3.931 0 00-3.919 3.92v12.163a3.931 3.931 0 003.92 3.92h12.163a3.931 3.931 0 003.92-3.92V3.921a3.931 3.931 0 00-3.92-3.919H3.921zm2.244 4.513h3.946c.82 0 1.442.03 1.864.094.423.062.82.193 1.188.392.4.215.699.505.896.863.198.361.298.776.298 1.247 0 .545-.136 1.03-.41 1.455a2.417 2.417 0 01-1.127.94v.058c.69.146 1.242.44 1.656.889.415.448.623 1.052.623 1.81 0 .555-.105 1.045-.315 1.465-.21.42-.492.765-.848 1.042-.42.33-.88.563-1.385.704-.502.14-1.14.21-1.915.21h-4.47V4.515zm2.79 2.048v2.363h.354c.479 0 .817-.005 1.01-.015a1.62 1.62 0 00.596-.156c.223-.105.38-.25.463-.435.085-.187.128-.402.128-.646 0-.181-.046-.366-.138-.555a.83.83 0 00-.433-.413 1.738 1.738 0 00-.655-.133c-.254-.008-.63-.01-1.13-.01h-.194zm0 4.276v2.797h.152c.73 0 1.234-.006 1.513-.016.279-.01.566-.076.855-.202.257-.11.44-.271.559-.484a1.47 1.47 0 00.176-.722c0-.346-.068-.615-.21-.81-.14-.196-.35-.342-.63-.442-.168-.067-.404-.103-.701-.11a48.38 48.38 0 00-1.196-.01h-.517z" fill="#141C2C"/></g><defs><clipPath id="clip0"><path fill="#fff" d="M0 0h20v20H0z"/></clipPath></defs></svg>